<?xml version="1.0" standalone="no"?>
<!DOCTYPE svg PUBLIC "-//W3C//DTD SVG 20010904//EN"
 "http://www.w3.org/TR/2001/REC-SVG-20010904/DTD/svg10.dtd">
<svg version="1.0" xmlns="http://www.w3.org/2000/svg"
 width="64.000000pt" height="64.000000pt" viewBox="0 0 64.000000 64.000000"
 preserveAspectRatio="xMidYMid meet">

<g transform="translate(0.000000,64.000000) scale(0.100000,-0.100000)"
fill="#000000" stroke="none">
<path d="M276 614 c-20 -20 -20 -68 0 -88 8 -9 28 -16 44 -16 16 0 36 7 44 16
20 20 20 68 0 88 -20 20 -68 20 -88 0z m69 -44 c0 -18 -6 -26 -23 -28 -13 -2
-25 3 -28 12 -10 26 4 48 28 44 17 -2 23 -10 23 -28z"/>
<path d="M190 515 c-7 -9 -10 -18 -7 -21 10 -10 47 7 47 22 0 19 -24 18 -40
-1z"/>
<path d="M410 516 c0 -15 37 -32 47 -22 9 8 -17 36 -33 36 -8 0 -14 -6 -14
-14z"/>
<path d="M50 490 c-40 -40 -11 -110 45 -110 14 0 34 9 45 20 40 40 11 110 -45
110 -14 0 -34 -9 -45 -20z m74 -32 c8 -14 7 -21 -6 -34 -30 -30 -75 9 -48 42
16 18 39 15 54 -8z"/>
<path d="M500 490 c-40 -40 -11 -110 45 -110 32 0 65 33 65 65 0 14 -9 34 -20
45 -11 11 -31 20 -45 20 -14 0 -34 -9 -45 -20z m74 -32 c8 -14 7 -21 -6 -34
-30 -30 -75 9 -48 42 16 18 39 15 54 -8z"/>
<path d="M244 431 c-34 -21 -64 -75 -64 -116 0 -41 30 -95 64 -116 40 -25 112
-25 152 0 34 21 64 75 64 116 0 41 -30 95 -64 116 -40 25 -112 25 -152 0z
m116 -20 c0 -5 -9 -15 -21 -22 -13 -9 -18 -20 -14 -31 9 -22 31 -23 38 -4 5
13 10 13 36 0 44 -22 43 -64 -3 -110 -29 -29 -41 -34 -82 -34 -47 0 -47 0 -29
20 16 18 17 23 5 45 -10 20 -11 28 -2 37 17 17 15 28 -6 28 -9 0 -22 -10 -27
-22 -14 -30 -40 -38 -33 -10 3 12 1 23 -5 25 -13 4 16 54 42 74 18 14 101 17
101 4z"/>
<path d="M373 303 c-26 -5 -29 -13 -11 -31 14 -14 48 2 48 23 0 8 -3 14 -7 14
-5 -1 -18 -4 -30 -6z"/>
<path d="M80 320 c0 -20 5 -30 15 -30 10 0 15 10 15 30 0 20 -5 30 -15 30 -10
0 -15 -10 -15 -30z"/>
<path d="M530 320 c0 -20 5 -30 15 -30 10 0 15 10 15 30 0 20 -5 30 -15 30
-10 0 -15 -10 -15 -30z"/>
<path d="M50 240 c-26 -26 -26 -64 0 -90 26 -26 64 -26 90 0 40 40 11 110 -45
110 -14 0 -34 -9 -45 -20z m74 -32 c8 -14 7 -21 -6 -34 -30 -30 -75 9 -48 42
16 18 39 15 54 -8z"/>
<path d="M500 240 c-40 -40 -11 -110 45 -110 32 0 65 33 65 65 0 14 -9 34 -20
45 -11 11 -31 20 -45 20 -14 0 -34 -9 -45 -20z m74 -32 c8 -14 7 -21 -6 -34
-30 -30 -75 9 -48 42 16 18 39 15 54 -8z"/>
<path d="M180 142 c0 -12 23 -32 37 -32 18 0 16 27 -3 34 -21 8 -34 8 -34 -2z"/>
<path d="M423 143 c-17 -6 -17 -33 0 -33 14 0 37 20 37 32 0 9 -18 9 -37 1z"/>
<path d="M276 114 c-20 -20 -20 -68 0 -88 20 -20 68 -20 88 0 20 20 20 68 0
88 -8 9 -28 16 -44 16 -16 0 -36 -7 -44 -16z m69 -44 c0 -18 -6 -26 -23 -28
-24 -4 -38 18 -28 44 3 9 15 14 28 12 17 -2 23 -10 23 -28z"/>
</g>
</svg>
